<svg height="2254" width="720" xmlns="http://www.w3.org/2000/svg">
<rect height="2254" fill="#555" width="720"></rect>
<text fill="#7f7" font-family="Courier New" font-size="12" xml:space="preserve">
<tspan x="10" y="26">17 megabytes installed</tspan>
<tspan x="10" y="42"></tspan>
<tspan x="10" y="58">node_modules</tspan>
<tspan x="10" y="74">└─┬ node-webkit-builder@1.0.13 </tspan>
<tspan x="10" y="90">  ├─┬ archiver@0.13.1 </tspan>
<tspan x="10" y="106">  │ ├── async@0.9.2 </tspan>
<tspan x="10" y="122">  │ ├── buffer-crc32@0.2.13 </tspan>
<tspan x="10" y="138">  │ ├─┬ glob@4.3.5 </tspan>
<tspan x="10" y="154">  │ │ ├─┬ inflight@1.0.6 </tspan>
<tspan x="10" y="170">  │ │ │ └── wrappy@1.0.2 </tspan>
<tspan x="10" y="186">  │ │ ├─┬ minimatch@2.0.10 </tspan>
<tspan x="10" y="202">  │ │ │ └─┬ brace-expansion@1.1.7 </tspan>
<tspan x="10" y="218">  │ │ │   ├── balanced-match@0.4.2 </tspan>
<tspan x="10" y="234">  │ │ │   └── concat-map@0.0.1 </tspan>
<tspan x="10" y="250">  │ │ └── once@1.4.0 </tspan>
<tspan x="10" y="266">  │ ├── lazystream@0.1.0 </tspan>
<tspan x="10" y="282">  │ ├─┬ readable-stream@1.0.34 </tspan>
<tspan x="10" y="298">  │ │ ├── core-util-is@1.0.2 </tspan>
<tspan x="10" y="314">  │ │ ├── isarray@0.0.1 </tspan>
<tspan x="10" y="330">  │ │ └── string_decoder@0.10.31 </tspan>
<tspan x="10" y="346">  │ ├─┬ tar-stream@1.1.5 </tspan>
<tspan x="10" y="362">  │ │ ├── bl@0.9.5 </tspan>
<tspan x="10" y="378">  │ │ ├── end-of-stream@1.4.0 </tspan>
<tspan x="10" y="394">  │ │ └── xtend@4.0.1 </tspan>
<tspan x="10" y="410">  │ └─┬ zip-stream@0.5.2 </tspan>
<tspan x="10" y="426">  │   ├─┬ compress-commons@0.2.9 </tspan>
<tspan x="10" y="442">  │   │ ├── crc32-stream@0.3.4 </tspan>
<tspan x="10" y="458">  │   │ └── node-int64@0.3.3 </tspan>
<tspan x="10" y="474">  │   └── lodash@3.2.0 </tspan>
<tspan x="10" y="490">  ├── bluebird@1.2.4 </tspan>
<tspan x="10" y="506">  ├─┬ decompress-zip@0.0.8 </tspan>
<tspan x="10" y="522">  │ ├─┬ binary@0.3.0 </tspan>
<tspan x="10" y="538">  │ │ ├── buffers@0.1.1 </tspan>
<tspan x="10" y="554">  │ │ └─┬ chainsaw@0.1.0 </tspan>
<tspan x="10" y="570">  │ │   └── traverse@0.3.9 </tspan>
<tspan x="10" y="586">  │ ├─┬ graceful-fs@3.0.11 </tspan>
<tspan x="10" y="602">  │ │ └── natives@1.1.0 </tspan>
<tspan x="10" y="618">  │ ├── mkpath@0.1.0 </tspan>
<tspan x="10" y="634">  │ ├─┬ nopt@2.2.1 </tspan>
<tspan x="10" y="650">  │ │ └── abbrev@1.1.0 </tspan>
<tspan x="10" y="666">  │ ├── q@1.0.1 </tspan>
<tspan x="10" y="682">  │ ├── readable-stream@1.1.14 </tspan>
<tspan x="10" y="698">  │ └─┬ touch@0.0.2 </tspan>
<tspan x="10" y="714">  │   └── nopt@1.0.10 </tspan>
<tspan x="10" y="730">  ├─┬ graceful-fs-extra@1.1.0 </tspan>
<tspan x="10" y="746">  │ ├─┬ fs-extra@0.30.0 </tspan>
<tspan x="10" y="762">  │ │ ├── graceful-fs@4.1.11 </tspan>
<tspan x="10" y="778">  │ │ ├─┬ jsonfile@2.4.0 </tspan>
<tspan x="10" y="794">  │ │ │ └── graceful-fs@4.1.11 </tspan>
<tspan x="10" y="810">  │ │ ├─┬ klaw@1.3.1 </tspan>
<tspan x="10" y="826">  │ │ │ └── graceful-fs@4.1.11 </tspan>
<tspan x="10" y="842">  │ │ └── path-is-absolute@1.0.1 </tspan>
<tspan x="10" y="858">  │ └─┬ proxyquire@1.7.11 </tspan>
<tspan x="10" y="874">  │   ├─┬ fill-keys@1.0.2 </tspan>
<tspan x="10" y="890">  │   │ ├── is-object@1.0.1 </tspan>
<tspan x="10" y="906">  │   │ └── merge-descriptors@1.0.1 </tspan>
<tspan x="10" y="922">  │   ├── module-not-found-error@1.0.1 </tspan>
<tspan x="10" y="938">  │   └── resolve@1.1.7 </tspan>
<tspan x="10" y="954">  ├─┬ graceful-ncp@2.0.0 </tspan>
<tspan x="10" y="970">  │ └── ncp@2.0.0 </tspan>
<tspan x="10" y="986">  ├── inherits@2.0.3 </tspan>
<tspan x="10" y="1002">  ├── lodash@2.4.2 </tspan>
<tspan x="10" y="1018">  ├─┬ optimist@0.6.1 </tspan>
<tspan x="10" y="1034">  │ ├── minimist@0.0.10 </tspan>
<tspan x="10" y="1050">  │ └── wordwrap@0.0.3 </tspan>
<tspan x="10" y="1066">  ├── platform-overrides@1.0.1 </tspan>
<tspan x="10" y="1082">  ├─┬ plist@1.2.0 </tspan>
<tspan x="10" y="1098">  │ ├── base64-js@0.0.8 </tspan>
<tspan x="10" y="1114">  │ ├── util-deprecate@1.0.2 </tspan>
<tspan x="10" y="1130">  │ ├─┬ xmlbuilder@4.0.0 </tspan>
<tspan x="10" y="1146">  │ │ └── lodash@3.10.1 </tspan>
<tspan x="10" y="1162">  │ └── xmldom@0.1.27 </tspan>
<tspan x="10" y="1178">  ├── progress@1.1.8 </tspan>
<tspan x="10" y="1194">  ├── rcedit@0.2.0 </tspan>
<tspan x="10" y="1210">  ├─┬ request@2.40.0 </tspan>
<tspan x="10" y="1226">  │ ├── aws-sign2@0.5.0 </tspan>
<tspan x="10" y="1242">  │ ├── forever-agent@0.5.2 </tspan>
<tspan x="10" y="1258">  │ ├─┬ form-data@0.1.4 </tspan>
<tspan x="10" y="1274">  │ │ ├─┬ combined-stream@0.0.7 </tspan>
<tspan x="10" y="1290">  │ │ │ └── delayed-stream@0.0.5 </tspan>
<tspan x="10" y="1306">  │ │ └── mime@1.2.11 </tspan>
<tspan x="10" y="1322">  │ ├─┬ hawk@1.1.1 </tspan>
<tspan x="10" y="1338">  │ │ ├── boom@0.4.2 </tspan>
<tspan x="10" y="1354">  │ │ ├── cryptiles@0.2.2 </tspan>
<tspan x="10" y="1370">  │ │ ├── hoek@0.9.1 </tspan>
<tspan x="10" y="1386">  │ │ └── sntp@0.2.4 </tspan>
<tspan x="10" y="1402">  │ ├─┬ http-signature@0.10.1 </tspan>
<tspan x="10" y="1418">  │ │ ├── asn1@0.1.11 </tspan>
<tspan x="10" y="1434">  │ │ ├── assert-plus@0.1.5 </tspan>
<tspan x="10" y="1450">  │ │ └── ctype@0.5.3 </tspan>
<tspan x="10" y="1466">  │ ├── json-stringify-safe@5.0.1 </tspan>
<tspan x="10" y="1482">  │ ├── mime-types@1.0.2 </tspan>
<tspan x="10" y="1498">  │ ├── node-uuid@1.4.8 </tspan>
<tspan x="10" y="1514">  │ ├── oauth-sign@0.3.0 </tspan>
<tspan x="10" y="1530">  │ ├── qs@1.0.2 </tspan>
<tspan x="10" y="1546">  │ ├── stringstream@0.0.5 </tspan>
<tspan x="10" y="1562">  │ ├─┬ tough-cookie@2.3.2 </tspan>
<tspan x="10" y="1578">  │ │ └── punycode@1.4.1 </tspan>
<tspan x="10" y="1594">  │ └── tunnel-agent@0.4.3 </tspan>
<tspan x="10" y="1610">  ├─┬ rimraf@2.6.1 </tspan>
<tspan x="10" y="1626">  │ └─┬ glob@7.1.1 </tspan>
<tspan x="10" y="1642">  │   ├── fs.realpath@1.0.0 </tspan>
<tspan x="10" y="1658">  │   └── minimatch@3.0.3 </tspan>
<tspan x="10" y="1674">  ├── semver@2.3.2 </tspan>
<tspan x="10" y="1690">  ├─┬ simple-glob@0.1.0 </tspan>
<tspan x="10" y="1706">  │ ├─┬ glob@3.2.11 </tspan>
<tspan x="10" y="1722">  │ │ └── minimatch@0.3.0 </tspan>
<tspan x="10" y="1738">  │ └─┬ minimatch@0.2.14 </tspan>
<tspan x="10" y="1754">  │   ├── lru-cache@2.7.3 </tspan>
<tspan x="10" y="1770">  │   └── sigmund@1.0.1 </tspan>
<tspan x="10" y="1786">  ├─┬ tar-fs@0.3.3 </tspan>
<tspan x="10" y="1802">  │ ├── mkdirp@0.3.5 </tspan>
<tspan x="10" y="1818">  │ ├─┬ pump@0.3.5 </tspan>
<tspan x="10" y="1834">  │ │ ├─┬ end-of-stream@1.0.0 </tspan>
<tspan x="10" y="1850">  │ │ │ └── once@1.3.3 </tspan>
<tspan x="10" y="1866">  │ │ └── once@1.2.0 </tspan>
<tspan x="10" y="1882">  │ └── tar-stream@0.4.7 </tspan>
<tspan x="10" y="1898">  ├─┬ temp@0.7.0 </tspan>
<tspan x="10" y="1914">  │ └── rimraf@2.2.8 </tspan>
<tspan x="10" y="1930">  ├─┬ update-notifier@0.1.10 </tspan>
<tspan x="10" y="1946">  │ ├─┬ chalk@0.4.0 </tspan>
<tspan x="10" y="1962">  │ │ ├── ansi-styles@1.0.0 </tspan>
<tspan x="10" y="1978">  │ │ ├── has-color@0.1.7 </tspan>
<tspan x="10" y="1994">  │ │ └── strip-ansi@0.1.1 </tspan>
<tspan x="10" y="2010">  │ └─┬ configstore@0.3.2 </tspan>
<tspan x="10" y="2026">  │   ├─┬ js-yaml@3.8.3 </tspan>
<tspan x="10" y="2042">  │   │ ├─┬ argparse@1.0.9 </tspan>
<tspan x="10" y="2058">  │   │ │ └── sprintf-js@1.0.3 </tspan>
<tspan x="10" y="2074">  │   │ └── esprima@3.1.3 </tspan>
<tspan x="10" y="2090">  │   ├─┬ mkdirp@0.5.1 </tspan>
<tspan x="10" y="2106">  │   │ └── minimist@0.0.8 </tspan>
<tspan x="10" y="2122">  │   ├── object-assign@2.1.1 </tspan>
<tspan x="10" y="2138">  │   ├─┬ osenv@0.1.4 </tspan>
<tspan x="10" y="2154">  │   │ ├── os-homedir@1.0.2 </tspan>
<tspan x="10" y="2170">  │   │ └── os-tmpdir@1.0.2 </tspan>
<tspan x="10" y="2186">  │   ├── user-home@1.1.1 </tspan>
<tspan x="10" y="2202">  │   ├── uuid@2.0.3 </tspan>
<tspan x="10" y="2218">  │   └── xdg-basedir@1.0.1 </tspan>
<tspan x="10" y="2234">  └── winresourcer@0.9.0</tspan>
</text>
</svg>
